<svg xmlns="http://www.w3.org/2000/svg" viewBox="0 0 83.2 72.76"><g id="Layer_2" data-name="Layer 2"><g id="Layer_1-2" data-name="Layer 1"><path d="M3.91,37.35c.11.29.1-.16.15-.28a10.51,10.51,0,0,1,.67-1.29c.5-.78,1.08-1.52,1.63-2.26Q8.21,31,10.12,28.63q3.78-4.72,7.87-9.2c2.72-3,5.55-5.86,8.46-8.64,2.39-2.28,5.11-5.28,8.5-5.94.12,0,1-.22.4-.24-1.58-.06,0-.21-.2-.14,0,0,.22.83.23.91a17.15,17.15,0,0,1,.47,2.94,26.13,26.13,0,0,1-.24,5.73,61.74,61.74,0,0,1-3.17,11.57,150.26,150.26,0,0,1-9.57,21.17A147.63,147.63,0,0,1,8.4,68.38a2.72,2.72,0,0,0,.12,3.35c.58.76,2.07,1.55,2.86.57A152.1,152.1,0,0,0,36.72,26.73a53.93,53.93,0,0,0,3.15-13.49,27.26,27.26,0,0,0-.29-6.69c-.34-2.1-.88-4.73-2.82-5.95s-4.25-.4-6.08.53a23,23,0,0,0-4.82,3.5c-3.35,3-6.54,6.25-9.62,9.54q-5.13,5.51-9.81,11.44c-1.61,2-3.2,4.12-4.71,6.25S-.52,36.35.47,39c.38,1,1.72,1.94,2.79,1.44s1-2.08.65-3.08Z"/><path d="M12.33,45.76A54.11,54.11,0,0,1,35.66,21,46.87,46.87,0,0,1,43,17.82c2.68-.88,5.54-.42,7.33,1.94,3.42,4.5,2,11.6.31,16.49-2.36,7-6.66,13.07-10.87,19-.39.56,1.72.27,1.85.24a5.51,5.51,0,0,0,2.92-1.06A273.85,273.85,0,0,1,64.63,35.08l-4.7,1.09c1.45.88,1.55,2.81,2,4.29.51,1.77,1.54,2.92,3.49,2.93a13.78,13.78,0,0,0,7.42-2.5,7.06,7.06,0,0,1,2.57-1.28,9.19,9.19,0,0,1,3.38.32,6.57,6.57,0,0,0,3.37-.58c.38-.15,1.69-.69.71-.92-5.07-1.21-10.43.42-14.71,3.14-.23.15-.49.28-.71.44-1.11.77,1.17-.48,1.2-.2A10.24,10.24,0,0,1,67.53,41a5.83,5.83,0,0,1-.87-2.11c-.39-1.54-.63-3.22-2.1-4.12-.55-.34-1.88,0-2.43.16a5.25,5.25,0,0,0-2.26.93A276.15,276.15,0,0,0,39.78,55.26l4.77-.82c4.08-5.77,8.22-11.68,10.64-18.38,1.88-5.2,3.81-13.31-.4-17.94-2.28-2.5-5.73-2.56-8.85-2.08a42,42,0,0,0-10.13,3.22A56.75,56.75,0,0,0,20.05,29.54a54.51,54.51,0,0,0-12.48,17c-.29.61,1.63.28,1.85.24.62-.11,2.58-.35,2.91-1.06Z"/></g></g></svg>