<svg xmlns="http://www.w3.org/2000/svg" viewBox="0 0 376.14 143.36"><g id="Layer_2" data-name="Layer 2"><g id="Layer_1-2" data-name="Layer 1"><path d="M8.74,54.65c-.49-.52-.11-.12-.05.12a1.46,1.46,0,0,1,0-.2c0-.51-.14-1.07-.13-1.6A12.68,12.68,0,0,1,9.31,49,30,30,0,0,1,13,42.22,75.6,75.6,0,0,1,30.83,23.53a20.9,20.9,0,0,1,3.49-2.31,3.65,3.65,0,0,1,3.81.18c.12.07.3.45.06,0a1.62,1.62,0,0,1,.17.41c.15.55.34,1.09.48,1.64a33.81,33.81,0,0,1,.86,5,56.27,56.27,0,0,1,.07,9.18,171.71,171.71,0,0,1-6.51,35.09,197.34,197.34,0,0,1-12.34,32.41A195.51,195.51,0,0,1,.17,138.86c-.5.64.22,1.93.54,2.53.09.18,1.41,2.36,1.76,1.91A198.81,198.81,0,0,0,36.38,74.76c1.69-6.2,3.07-12.49,4.14-18.83a115.94,115.94,0,0,0,2-19.39,43.26,43.26,0,0,0-1.2-10.39c-.75-3-1.84-6.25-4.11-8.49-2.48-2.46-5.23-1.05-7.67.68a77.84,77.84,0,0,0-7.22,5.85A75.92,75.92,0,0,0,9,40.24a19.42,19.42,0,0,0-3.09,8.52A12.83,12.83,0,0,0,9.5,58.24c.62.67,1,.41.87-.45a6.69,6.69,0,0,0-1.63-3.14Z"/><path d="M24.29,86.9a44.58,44.58,0,0,1,7.08-11,37.17,37.17,0,0,1,9.81-8.29A8.69,8.69,0,0,1,46,66.33c1.45.18,2.07,1.71,2.34,3.2a29.65,29.65,0,0,1-1.45,14,65.44,65.44,0,0,1-7.22,14.59l4.53,2A60.73,60.73,0,0,1,67.47,73.32L63.33,71,60.92,84.9c-.6,3.44-2.6,9,1.41,11.13,3.78,2,7.62-1.17,10.27-3.61A35.8,35.8,0,0,0,83.83,71.84c.4-2.48-4-4.07-4.77-1.5a27,27,0,0,0,1.47,18.71c.68,1.43,3.4,2.65,4.5.93l6.41-10c1.66-2.58,3.35-6.25,6.22-7.71a3.2,3.2,0,0,1,2.77-.31c1,.57,1.26,2.15,1.35,3.18a12.58,12.58,0,0,1-3,9.08l4.52,2a68.93,68.93,0,0,1,4.77-9.53q1.39-2.31,3-4.5c.71-1,1.63-2.45,2.94-2.69,2-.36,3.6,2.44,3.74,4.22.28,3.47-1.59,6.7-3.28,9.59-1.39,2.39,3,4.6,4.28,2.45,2.18-3.73,4.58-8,3.79-12.47a9.66,9.66,0,0,0-8-7.79c-4.69-.52-7.26,3.39-9.49,6.84a76.11,76.11,0,0,0-6.45,12.37c-.94,2.31,3.21,3.57,4.53,2a15.45,15.45,0,0,0,3.55-11.61c-.59-4.49-3.93-7.65-8.6-7.27-4.28.35-7,3.73-9.16,7.08L80.75,87.54l4.5.93a23.77,23.77,0,0,1-1.42-16.63l-4.77-1.5A32.84,32.84,0,0,1,67.92,90.25a23.13,23.13,0,0,1-2.45,1.85,6.08,6.08,0,0,1-.84.44.82.82,0,0,1-.48.12.94.94,0,0,1,.76.33c-.15.06,0-1.76,0-1.94.15-1.14.39-2.28.59-3.42l2.62-15.15c.38-2.19-2.43-3.41-4.14-2.34A64.19,64.19,0,0,0,39.43,98.56c-1,2.16,3.36,3.82,4.52,2,5.76-9.1,11.36-20.35,9.13-31.45a8.05,8.05,0,0,0-4.25-5.92,10.3,10.3,0,0,0-7.35-.37c-4.73,1.32-8.81,5-12.21,8.35a47.86,47.86,0,0,0-9.75,14.24c-.52,1.15.84,2.32,1.79,2.62a2.34,2.34,0,0,0,3-1.11Z"/><path d="M136.91,68.61a4,4,0,0,0-1.34-4.75,6,6,0,0,0-5.7-1.06c-4.63,1.34-7.89,5.78-9.61,10.08a9.27,9.27,0,0,0-.61,6A5.31,5.31,0,0,0,124,82.58c4.35.78,9-1.94,12-4.78a20.55,20.55,0,0,0,6.67-13.24c.09-1-1.57-.45-1.93-.3a4.24,4.24,0,0,0-2.35,2.11,22.81,22.81,0,0,0-1.64,8.83c.05,2.68.47,6,2,8.3,3.71,5.45,11.78-.61,14.87-3.75,4.06-4.11,6.63-9.45,9.2-14.54q4.44-8.77,8.3-17.81,3.77-8.84,7-17.9,1.64-4.63,3.11-9.33c.57-1.82,2.25-5.52-.29-6.64-1.32-.59-3,.16-4.09.84a13.47,13.47,0,0,0-3.45,3.2A33.79,33.79,0,0,0,169,24.84c-2.33,5.17-3.47,10.78-4.48,16.32-2.57,14.26-5.34,29.21-1.46,43.5.47,1.72,4.74-.76,4.35-2.17-3.07-11.31-1.93-23.13-.08-34.55.85-5.27,1.7-10.59,3-15.78a39.58,39.58,0,0,1,5.63-13.52,25.73,25.73,0,0,1,1.81-2.22l-.26.13c-.36.1-.34.19.05.29.08.17.23.28.3.46a3,3,0,0,1,0,1.62,76.58,76.58,0,0,1-2.56,8q-2.76,8.2-6,16.26T162.32,59.1C160,64,157.62,69,154.81,73.73a27,27,0,0,1-4.59,6c-1.54,1.44-4,3.37-6.19,2.06-2.36-1.44-2.75-5.47-2.9-7.93a20.88,20.88,0,0,1,1.48-9l-4.28,1.81c-.45,5-3.83,11.88-9.48,12.59-3.21.41-5.41-2-5.1-5.14a11.82,11.82,0,0,1,1.51-4.39,11.56,11.56,0,0,1,2.54-3.49c2.11-1.69,5.92,1.3,4.88,3.75-.44,1.06,1,1,1.6.78a4.39,4.39,0,0,0,2.63-2.22Z"/><path d="M237.68,33.27c4.13-2.85,8.33-5.87,10.64-10.46a12.58,12.58,0,0,0-.93-13.3,16.32,16.32,0,0,0-11-6.65c-4.56-.56-9,1.16-12.58,3.89-7.2,5.48-11.46,14.56-12.44,23.42s1.08,19.06,7,26c3.59,4.22,8.78,6.61,14.19,4.48s8.47-7,11.33-11.74l-3.55-3.4a247.29,247.29,0,0,1-12,37.05q-3.75,9-8.2,17.69A153.06,153.06,0,0,1,210.58,117c-3.14,4.58-8.18,9.44-14.26,8.44-5.55-.92-7.06-7.77-7.07-12.53,0-12.53,9.23-22.16,18.24-29.64a156,156,0,0,1,36.67-22.69c1.45-.64-1.69-4.41-2.91-3.87a157.74,157.74,0,0,0-34.94,21.09c-9.68,7.73-19.95,17.46-20.71,30.66-.36,6.32,1.66,12.8,6.31,17.24a12.47,12.47,0,0,0,8.12,3.71,13.75,13.75,0,0,0,8.35-2.7,25.75,25.75,0,0,0,6.32-7.11c1.84-2.84,3.5-5.8,5.14-8.76q4.92-8.85,9.1-18.07a245.24,245.24,0,0,0,15.12-44.12c.26-1.08-2.89-4.49-3.55-3.4-2.21,3.66-4.53,7.54-8.11,10-3.09,2.16-7.86,3.49-11.14,1-2.65-2-4-6-5-9.05A34.33,34.33,0,0,1,214.9,35.6a35.26,35.26,0,0,1,8.57-21.68C228.21,8.61,237,3.65,243.75,8.53c3.36,2.42,2.65,7.45,1.07,10.75-2.16,4.54-6.54,7.57-10.56,10.34-1,.71,2.15,4.53,3.42,3.65Z"/><path d="M267.74,5.53c-1.72,3.52-2.56,7.36-3.62,11.1S261.9,24.21,260.68,28Q257,39.34,252.37,50.4q-2.66,6.35-5.58,12.56L251,65.63c.44-8.4,8.28-13.1,15.08-16.28a13.38,13.38,0,0,1,5.16-1.7,6.94,6.94,0,0,0,1.09.11L271.13,47c-1.15-1-1.5-1.09-1-.37,0,.29.16.55.2.84a10.63,10.63,0,0,1-.33,3.22c-.39,2.28-.79,4.56-1.18,6.84-.3,1.7-.69,3.62.13,5.24s7.78,6.51,8.56,2.58c.09-.48-1.62-1.4-2-1.61-.15-.09-2.24-1.27-2.28-1.06a1.6,1.6,0,0,1-1,1.24,3.43,3.43,0,0,1-1,.15c-.12,0-.27-.07-.39,0l2.52,1.65a2.47,2.47,0,0,1-.29-.47c-.88-1.73-.26-3.94.05-5.73.41-2.37.84-4.73,1.23-7.09.29-1.8.3-3.34-1.15-4.61A10.9,10.9,0,0,0,267.89,45a8.85,8.85,0,0,0-4.44,1,44.3,44.3,0,0,0-10.69,6.12c-3.26,2.74-5.74,6.54-6,10.88,0,.75,4.12,2.9,4.23,2.67A301.43,301.43,0,0,0,267.9,20.9c1.22-4.26,2.11-8.7,4.07-12.7.28-.57-4.09-2.95-4.23-2.67Z"/><path d="M292.39,47.29a2.5,2.5,0,0,0-1.12-3c-1.64-1.09-4-.73-5.71,0a14.85,14.85,0,0,0-6.65,5.82c-2.65,4.26-4.19,12.76,2.78,13.72,6.08.83,12.08-3.94,14.84-9,2.25-4.11,4.07-12.7-1.82-14.74a6.27,6.27,0,0,0-7.91,3.35A11.06,11.06,0,0,0,287,51.9a7.52,7.52,0,0,0,2.56,3.42c1.62,1.06,3.84.82,5.58.24A15.13,15.13,0,0,0,302,50.51c1.83-2.28,3-5,4.89-7.25a5.08,5.08,0,0,1,.5-.54c.28-.24.69-.29.27-.27a2.41,2.41,0,0,1,1.16.32,5.84,5.84,0,0,1,2.57,3.2c1.91,5.09-.1,11.33-4,15A12.91,12.91,0,0,1,304,63.11c.58-.28.51.25.13-.36a2,2,0,0,1-.23-.86,2.75,2.75,0,0,1,.82-2.09A22.74,22.74,0,0,1,308.57,57c1.54-1.1,3.05-2.25,4.52-3.43a101.18,101.18,0,0,0,15.7-15.81c.71-.9-.38-1.54-1.17-1.66a3.78,3.78,0,0,0-3.31,1A95.19,95.19,0,0,1,312,50q-3.3,2.87-6.86,5.42c-2.08,1.49-5.15,3-6,5.59s1.21,4.75,3.88,4.81,5.47-1.4,7.57-3.14a17.32,17.32,0,0,0,6.36-13,11.24,11.24,0,0,0-2.17-7.26,8,8,0,0,0-7.43-2.65c-3.19.49-4.91,2.52-6.54,5.1A39.29,39.29,0,0,1,296.51,51a9.62,9.62,0,0,1-2.59,2,5.16,5.16,0,0,1-.47.24l-.14.06c.43.08.43,0,0-.21-.39-.6-.88-1.11-1.23-1.77a9.57,9.57,0,0,1-.48-7.8c.05-.14.7-1.24.7-1.24.08.26-1-.2-.79.19.06.11.48.24.61.34a5,5,0,0,1,1.5,3.55,14.5,14.5,0,0,1-1.39,7.36,14.69,14.69,0,0,1-5.2,6.09c-.83.55-2.17,1.44-3.21,1.3s-1.85-1.5-2.09-2.52a10.9,10.9,0,0,1,1.74-8,12.72,12.72,0,0,1,2.66-3c.15-.12,1.86-1.22,1.86-1.22h-.79l.17.14c.1.45.35.43.13.94-.73,1.72,4.18,1.59,4.88-.06Z"/><path d="M337.52,4.6l-2.74-3.07c-.06-.07-2-2.06-2.07-1.39A178.83,178.83,0,0,1,321.53,56c-.35.95,3.06,4.12,3.29,3.77,3.85-5.81,8.13-12,14.95-14.55l-3.26-3.34c1.13,3.44-1.3,6.89-1,10.39a8.2,8.2,0,0,0,1.86,4.27,9,9,0,0,0,4.35,3.41c3.11.83,7-1,9.65-2.37A27.41,27.41,0,0,0,359.5,51c.6-.71-2.94-4.18-3.29-3.77a26.15,26.15,0,0,1-14.49,8.89,7.34,7.34,0,0,1-2.19.11,6,6,0,0,1-1.11-.25l-.43-.21c1.13,1.61,1.55,2.06,1.24,1.35A11.5,11.5,0,0,1,339,53.6c.39-3,1.79-5.77.78-8.85a6.86,6.86,0,0,0-1.68-2.28c-.3-.31-1.08-1.25-1.58-1.07-6.82,2.51-11.09,8.74-15,14.55l3.29,3.77A180,180,0,0,0,336.09,3.59L334,2.2l2.74,3.07c.21.24,1.61,1.91,2,1.55s-1.13-2.07-1.26-2.22Z"/><path d="M99.68,109.3Q153.26,102.63,207.16,99q53.6-3.58,107.35-4.1,30.25-.3,60.53.38c1.22,0,1.22-1.79,1-2.56a2.84,2.84,0,0,0-2.57-2.07q-54-1.22-108,.67-53.7,1.88-107.21,6.8-30.13,2.77-60.18,6.52c-2.45.31-.58,4.91,1.6,4.64Z"/></g></g></svg>